<svg xmlns="http://www.w3.org/2000/svg" width="30.088" height="28.598" viewBox="0 0 30.088 28.598">
  <g id="home_1_" data-name="home (1)" transform="translate(0 -12.675)">
    <g id="Group_1" data-name="Group 1" transform="translate(0 12.676)">
      <path id="Path_3" data-name="Path 3" d="M29.583,25.381l-2.542-2.316v-7.68a.885.885,0,0,0-.885-.885H20.038a.885.885,0,0,0-.885.885v.492l-3.07-2.8a1.536,1.536,0,0,0-2.078,0l-13.5,12.3a1.543,1.543,0,0,0,1.039,2.683H3.7V40.389a.885.885,0,0,0,.885.885h7.4a.885.885,0,0,0,.885-.885V32.906h4.349v7.483a.885.885,0,0,0,.885.885h7.4a.885.885,0,0,0,.885-.885V28.064h2.156a1.543,1.543,0,0,0,1.039-2.683Zm-4.08.914a.885.885,0,0,0-.885.885V39.5H18.988V32.021a.885.885,0,0,0-.885-.885H11.985a.885.885,0,0,0-.885.885V39.5H5.47V27.18a.885.885,0,0,0-.885-.885H2.13L15.044,14.528l4.4,4.007a.885.885,0,0,0,1.481-.654V16.27h4.349v7.186a.885.885,0,0,0,.289.654l2.4,2.185Z" transform="translate(0 -12.676)" fill="#ffe715"/>
    </g>
  </g>
</svg>
