<svg xmlns="http://www.w3.org/2000/svg" width="207" height="52" viewBox="0 0 207 52">
  <g id="Group_10" data-name="Group 10" transform="translate(-83 -59)">
    <text id="The_Reviews" data-name="The Reviews" transform="translate(86 98)" fill="#ffe715" font-size="37" font-family="SourceSansPro-Bold, Source Sans Pro" font-weight="700"><tspan x="0" y="0">The Reviews</tspan></text>
    <g id="game" transform="translate(81 51.1)" opacity="0.65">
      <path id="Path_4" data-name="Path 4" d="M6.694,23.423a.893.893,0,0,1-.776-1.336,22.589,22.589,0,0,1,1.507-2.308.893.893,0,0,1,1.43,1.072A20.729,20.729,0,0,0,7.47,22.976.893.893,0,0,1,6.694,23.423Z" transform="translate(-0.405 -1.227)" fill="#ffe715"/>
      <path id="Path_5" data-name="Path 5" d="M28,59.9A26.034,26.034,0,0,1,2.834,27.331a.893.893,0,1,1,1.729.447,24.219,24.219,0,0,0,43.432,19.78L27.543,35.406a.893.893,0,0,1,0-1.537L48.68,21.317A24.257,24.257,0,0,0,28,9.687,23.977,23.977,0,0,0,20.428,10.9a.894.894,0,1,1-.564-1.7A25.784,25.784,0,0,1,28,7.9,26.045,26.045,0,0,1,50.678,21.2a.893.893,0,0,1-.323,1.205L29.749,34.642,49.711,46.5a.893.893,0,0,1,.3,1.245A25.9,25.9,0,0,1,28,59.9Z" transform="translate(0 0)" fill="#ffe715"/>
      <path id="Path_6" data-name="Path 6" d="M13.114,15.917a.893.893,0,0,1-.572-1.581,24.8,24.8,0,0,1,2.244-1.653.894.894,0,0,1,.983,1.494,23.225,23.225,0,0,0-2.082,1.531A.888.888,0,0,1,13.114,15.917Z" transform="translate(-1.089 -0.494)" fill="#ffe715"/>
      <path id="Path_7" data-name="Path 7" d="M34.487,23.462a3.831,3.831,0,1,1,3.832-3.831A3.831,3.831,0,0,1,34.487,23.462Zm0-5.875a2.044,2.044,0,1,0,2.045,2.045,2.044,2.044,0,0,0-2.045-2.045Z" transform="translate(-3.053 -0.842)" fill="#ffe715"/>
      <path id="Path_8" data-name="Path 8" d="M47.571,40.839a3.292,3.292,0,1,1,3.292-3.292,3.292,3.292,0,0,1-3.292,3.292Zm0-4.8a1.505,1.505,0,1,0,1.5,1.5,1.505,1.505,0,0,0-1.5-1.5Z" transform="translate(-4.504 -2.808)" fill="#ffe715"/>
      <path id="Path_9" data-name="Path 9" d="M57.747,40.839a3.292,3.292,0,1,1,3.292-3.292A3.292,3.292,0,0,1,57.747,40.839Zm0-4.8a1.505,1.505,0,1,0,1.5,1.5,1.506,1.506,0,0,0-1.5-1.5Z" transform="translate(-5.588 -2.808)" fill="#ffe715"/>
      <path id="Path_10" data-name="Path 10" d="M67.922,40.839a3.292,3.292,0,1,1,3.292-3.292A3.292,3.292,0,0,1,67.922,40.839Zm0-4.8a1.505,1.505,0,1,0,1.505,1.5A1.505,1.505,0,0,0,67.922,36.042Z" transform="translate(-6.672 -2.808)" fill="#ffe715"/>
    </g>
  </g>
</svg>
